<svg width="23" height="24" viewBox="0 0 23 24" fill="none" xmlns="http://www.w3.org/2000/svg">
<path d="M22.4844 18.4691L18.9324 14.8544C18.2249 14.1374 17.0533 14.1592 16.3211 14.9045L14.5316 16.7249C14.4186 16.6615 14.3016 16.5953 14.1785 16.5251C13.0485 15.8879 11.5018 15.0147 9.87424 13.3573C8.24186 11.6965 7.38285 10.1203 6.75479 8.9697C6.68851 8.8478 6.62501 8.73027 6.5623 8.61866L7.76333 7.39839L8.35379 6.79682C9.08706 6.0505 9.10727 4.85866 8.40144 4.13957L4.84944 0.524471C4.14361 -0.193613 2.97146 -0.171829 2.2382 0.574495L1.23712 1.59898L1.26448 1.62661C0.928807 2.06244 0.648308 2.5651 0.43957 3.10716C0.247152 3.62313 0.127354 4.1155 0.072576 4.60888C-0.396441 8.56534 1.38038 12.1812 6.20245 17.088C12.868 23.87 18.2396 23.3576 18.4713 23.3326C18.976 23.2712 19.4597 23.1485 19.9512 22.9543C20.4793 22.7444 20.973 22.4593 21.401 22.1185L21.4229 22.1383L22.4371 21.1278C23.1688 20.3816 23.1899 19.1894 22.4844 18.4691Z" fill="#C4C4C4"/>
</svg>
