<svg width="23" height="17" viewBox="0 0 23 17" fill="none" xmlns="http://www.w3.org/2000/svg">
<path d="M11.4965 11.4963L8.65194 9.00647L0.519043 15.9782C0.814665 16.2525 1.21376 16.4233 1.6539 16.4233H21.3391C21.7776 16.4233 22.175 16.2525 22.469 15.9782L14.341 9.00647L11.4965 11.4963Z" fill="#C4C4C4"/>
<path d="M22.4738 0.445122C22.1782 0.169207 21.7808 4.57764e-05 21.339 4.57764e-05H1.65379C1.21529 4.57764e-05 0.817839 0.17085 0.522217 0.448406L11.4964 9.85413L22.4738 0.445122Z" fill="#C4C4C4"/>
<path d="M0 1.44185V15.0865L7.93746 8.34135L0 1.44185Z" fill="#C4C4C4"/>
<path d="M15.0554 8.34153L22.9929 15.0866V1.4371L15.0554 8.34153Z" fill="#C4C4C4"/>
</svg>
