<svg width="23" height="32" viewBox="0 0 23 32" fill="none" xmlns="http://www.w3.org/2000/svg">
<path d="M11.4964 0.256104C5.15726 0.256104 0 5.41336 0 11.7525C0 19.6195 10.2882 31.1687 10.7262 31.6566C11.1376 32.1148 11.856 32.114 12.2667 31.6566C12.7047 31.1687 22.9929 19.6195 22.9929 11.7525C22.9927 5.41336 17.8355 0.256104 11.4964 0.256104ZM11.4964 17.5366C8.30704 17.5366 5.71235 14.9419 5.71235 11.7525C5.71235 8.56308 8.3071 5.96839 11.4964 5.96839C14.6858 5.96839 17.2804 8.56314 17.2804 11.7525C17.2804 14.9419 14.6858 17.5366 11.4964 17.5366Z" fill="#C4C4C4"/>
</svg>
