<svg width="177" height="27" viewBox="0 0 177 27" fill="none" xmlns="http://www.w3.org/2000/svg">
<path d="M8.24 9.2C7.876 9.2 7.554 9.116 7.274 8.948C7.022 8.752 6.812 8.5 6.644 8.192C6.476 7.884 6.35 7.534 6.266 7.142C6.182 6.75 6.14 6.344 6.14 5.924C6.14 4.636 6.336 3.614 6.728 2.858C7.12 2.074 7.722 1.402 8.534 0.841998L9.08 1.262C8.436 1.682 7.946 2.186 7.61 2.774C7.274 3.362 7.092 4.062 7.064 4.874C7.204 4.706 7.372 4.552 7.568 4.412C7.792 4.244 8.044 4.16 8.324 4.16C8.912 4.16 9.388 4.412 9.752 4.916C10.144 5.392 10.34 5.98 10.34 6.68C10.34 7.38 10.13 7.982 9.71 8.486C9.318 8.962 8.828 9.2 8.24 9.2ZM2.36 9.2C1.996 9.2 1.674 9.116 1.394 8.948C1.142 8.752 0.932 8.5 0.764 8.192C0.596 7.884 0.47 7.534 0.386 7.142C0.302 6.75 0.26 6.344 0.26 5.924C0.26 4.636 0.456 3.614 0.848 2.858C1.24 2.074 1.842 1.402 2.654 0.841998L3.2 1.262C2.556 1.682 2.066 2.186 1.73 2.774C1.394 3.362 1.212 4.062 1.184 4.874C1.324 4.706 1.492 4.552 1.688 4.412C1.912 4.244 2.164 4.16 2.444 4.16C3.032 4.16 3.508 4.412 3.872 4.916C4.264 5.392 4.46 5.98 4.46 6.68C4.46 7.38 4.25 7.982 3.83 8.486C3.438 8.962 2.948 9.2 2.36 9.2ZM16.2118 2.48H15.3718V0.799999H16.2118H35.5318H36.3718V2.48H35.5318V26H31.3318V2.48H20.4118V26H16.2118V2.48ZM42.5491 26V8.78C42.5491 7.324 42.8991 5.994 43.5991 4.79C44.3271 3.558 45.2791 2.55 46.4551 1.766C47.2111 1.262 48.0371 0.869999 48.9331 0.589999C49.8571 0.309999 50.8091 0.17 51.7891 0.17C52.7691 0.17 53.7071 0.296 54.6031 0.548C55.5271 0.8 56.3531 1.164 57.0811 1.64C58.1451 2.312 58.9991 3.152 59.6431 4.16C60.2871 5.168 60.6091 6.288 60.6091 7.52C60.6091 8.584 60.4271 9.522 60.0631 10.334C59.7271 11.146 59.2371 11.86 58.5931 12.476C57.9771 13.092 57.2211 13.61 56.3251 14.03C55.4571 14.45 54.5051 14.8 53.4691 15.08C52.1811 15.416 51.2851 15.906 50.7811 16.55C50.2771 17.194 49.9131 17.936 49.6891 18.776L47.2951 16.928C47.5191 16.284 47.9811 15.738 48.6811 15.29C49.4091 14.814 50.5011 14.464 51.9571 14.24C53.2171 14.044 54.2671 13.596 55.1071 12.896C55.9751 12.168 56.4091 11.272 56.4091 10.208C56.4091 9.004 56.2411 7.898 55.9051 6.89C55.5971 5.882 55.1631 5.028 54.6031 4.328C54.0711 3.6 53.4271 3.04 52.6711 2.648C51.9431 2.256 51.1591 2.06 50.3191 2.06C49.1431 2.06 48.2471 2.424 47.6311 3.152C47.0431 3.88 46.7491 5.084 46.7491 6.764V26H42.5491ZM65.9391 0.799999H70.1391V13.4L81.0591 6.47V0.799999H85.2591V26H81.0591V8.36L70.1391 15.29V26H65.9391V0.799999ZM99.5424 2.48H96.3924C95.5524 2.48 94.8384 2.508 94.2504 2.564C93.6904 2.62 93.2004 2.732 92.7804 2.9C92.3884 3.04 92.0524 3.25 91.7724 3.53C91.4924 3.81 91.2124 4.16 90.9324 4.58L90.0924 0.799999H112.142L111.638 4.16C110.994 3.516 110.252 3.082 109.412 2.858C108.572 2.606 107.522 2.48 106.262 2.48H103.742V26H99.5424V2.48ZM136.163 0.799999V26H131.963V8.024C131.207 8.752 130.507 9.34 129.863 9.788C129.219 10.236 128.589 10.6 127.973 10.88C127.385 11.16 126.797 11.356 126.209 11.468C125.621 11.552 125.019 11.594 124.403 11.594C123.143 11.594 121.939 11.244 120.791 10.544C119.643 9.844 118.649 8.654 117.809 6.974L115.037 1.43L119.531 0.127998L121.799 5.378C122.443 6.582 123.129 7.52 123.857 8.192C124.585 8.864 125.397 9.2 126.293 9.2C126.797 9.2 127.245 9.144 127.637 9.032C128.029 8.92 128.435 8.738 128.855 8.486C129.275 8.206 129.723 7.856 130.199 7.436C130.703 7.016 131.291 6.484 131.963 5.84V0.799999H136.163ZM156.507 22.01C155.611 22.682 154.771 23.312 153.987 23.9C153.203 24.488 152.419 25.006 151.635 25.454C150.879 25.874 150.081 26.21 149.241 26.462C148.429 26.714 147.561 26.84 146.637 26.84C145.825 26.84 145.125 26.686 144.537 26.378C143.949 26.07 143.459 25.65 143.067 25.118C142.675 24.586 142.381 23.97 142.185 23.27C141.989 22.542 141.891 21.772 141.891 20.96C141.891 19.616 142.087 18.314 142.479 17.054C142.871 15.766 143.431 14.436 144.159 13.064C144.887 11.664 145.755 10.194 146.763 8.654C147.771 7.114 148.905 5.406 150.165 3.53L149.199 0.799999H153.903L162.597 26H157.851L156.507 22.01ZM150.837 5.42C149.773 7.016 148.891 8.472 148.191 9.788C147.519 11.076 146.973 12.266 146.553 13.358C146.133 14.422 145.839 15.402 145.671 16.298C145.503 17.166 145.419 17.992 145.419 18.776C145.419 19.448 145.489 20.092 145.629 20.708C145.769 21.324 145.965 21.856 146.217 22.304C146.469 22.752 146.777 23.116 147.141 23.396C147.533 23.648 147.967 23.774 148.443 23.774C149.815 23.774 151.075 23.466 152.223 22.85C153.371 22.234 154.589 21.38 155.877 20.288L150.837 5.42ZM168.244 0.799999C168.608 0.799999 168.916 0.897999 169.168 1.094C169.448 1.262 169.672 1.5 169.84 1.808C170.008 2.116 170.134 2.466 170.218 2.858C170.302 3.25 170.344 3.656 170.344 4.076C170.344 5.364 170.148 6.4 169.756 7.184C169.364 7.94 168.762 8.598 167.95 9.158L167.404 8.738C168.048 8.318 168.538 7.814 168.874 7.226C169.21 6.638 169.392 5.938 169.42 5.126C169.28 5.294 169.098 5.462 168.874 5.63C168.678 5.77 168.44 5.84 168.16 5.84C167.572 5.84 167.082 5.602 166.69 5.126C166.326 4.622 166.144 4.02 166.144 3.32C166.144 2.62 166.34 2.032 166.732 1.556C167.152 1.052 167.656 0.799999 168.244 0.799999ZM174.124 0.799999C174.488 0.799999 174.796 0.897999 175.048 1.094C175.328 1.262 175.552 1.5 175.72 1.808C175.888 2.116 176.014 2.466 176.098 2.858C176.182 3.25 176.224 3.656 176.224 4.076C176.224 5.364 176.028 6.4 175.636 7.184C175.244 7.94 174.642 8.598 173.83 9.158L173.284 8.738C173.928 8.318 174.418 7.814 174.754 7.226C175.09 6.638 175.272 5.938 175.3 5.126C175.16 5.294 174.978 5.462 174.754 5.63C174.558 5.77 174.32 5.84 174.04 5.84C173.452 5.84 172.962 5.602 172.57 5.126C172.206 4.622 172.024 4.02 172.024 3.32C172.024 2.62 172.22 2.032 172.612 1.556C173.032 1.052 173.536 0.799999 174.124 0.799999Z" fill="#937D45"/>
</svg>
