<svg width="244" height="64" fill="none" xmlns="http://www.w3.org/2000/svg"><path d="M228 0H16C7 0 0 7 0 16v32c0 9 7 16 16 16h212c9 0 16-7 16-16V16c0-9-7-16-16-16Z" fill="#000"/><path d="M117 25v-6l-6 1v5h-2v5h2v14h6V30h4v-5h-4ZM85 34c2-1 3-3 3-5v-1c0-5-3-8-8-8H68v24h6v-8h6l4 8h6l-5-10Zm-3-6c0 2-1 3-3 3h-5v-6h5c2 0 3 1 3 3ZM150 25h-3v-6l-6 1v24h9c4 0 8-3 8-7v-4c0-4-4-8-8-8Zm2 11c0 2-1 3-3 3h-2v-9h2c2 0 3 1 3 3v3ZM133 25v11c0 2 0 3-2 3s-3-1-3-3V25h-6v12c0 4 2 7 8 7h1c6 0 8-3 8-7V25h-6ZM101 25v11c0 2-1 3-2 3-2 0-3-1-3-3V25h-6v12c0 4 2 7 8 7h1c6 0 8-3 8-7V25h-6ZM172 38s-1 2-4 2c-2 0-3-1-3-3v-1h11v-3c0-4-3-8-8-8-6 0-9 4-9 8v4c0 4 3 8 9 8 5 0 8-5 8-5l-4-2Zm-7-6c0-2 1-3 2-3h1c1 0 3 1 3 3h-6Z" fill="#fff"/></svg>