<svg fill="#ac8c4c" xmlns="http://www.w3.org/2000/svg" width="98.372" height="98.372"><path d="M49.186.002C22.022.002 0 22.021 0 49.186 0 76.35 22.022 98.37 49.186 98.37s49.186-22.021 49.186-49.185S76.35.002 49.186.002zm18.93 72.545c-.796 0-1.339-.275-2.082-.729-7.129-4.313-16.019-6.58-25.449-6.58-5.264 0-10.561.677-15.515 1.707-.805.175-1.817.484-2.425.484-1.867 0-3.111-1.482-3.111-3.092 0-2.064 1.19-3.096 2.675-3.379 6.075-1.385 12.125-2.176 18.409-2.176 10.762 0 20.354 2.471 28.608 7.418 1.228.717 1.947 1.449 1.947 3.27.001 1.775-1.441 3.077-3.057 3.077zm5.359-13.018c-1.067 0-1.738-.432-2.465-.854-8-4.748-19.09-7.902-31.232-7.902-6.228 0-11.604.873-16.053 2.058-.959.265-1.496.549-2.394.549-2.114 0-3.842-1.726-3.842-3.856 0-2.091 1.015-3.529 3.059-4.105 5.529-1.52 11.177-2.689 19.394-2.689 12.875 0 25.33 3.206 35.121 9.066 1.642.939 2.246 2.137 2.246 3.887 0 2.126-1.696 3.846-3.834 3.846zm6.102-15.14c-1 0-1.595-.244-2.533-.758-8.901-5.338-22.719-8.277-36.079-8.277-6.67 0-13.443.679-19.648 2.362-.715.179-1.616.537-2.521.537-2.624 0-4.638-2.076-4.638-4.699 0-2.674 1.656-4.174 3.442-4.701 7.012-2.065 14.838-3.027 23.346-3.027 14.443 0 29.639 2.971 40.738 9.488 1.496.849 2.533 2.126 2.533 4.468-.002 2.68-2.156 4.607-4.64 4.607z"/></svg>
