<svg width="62" height="61" viewBox="0 0 62 61" fill="#ac8c4c" xmlns="http://www.w3.org/2000/svg">
<path d="M31.2858 -3.05176e-05C14.5522 -3.05176e-05 0.98584 13.5657 0.98584 30.3C0.98584 47.0342 14.5522 60.6 31.2858 60.6C48.0195 60.6 61.5858 47.0342 61.5858 30.3C61.5858 13.5657 48.0195 -3.05176e-05 31.2858 -3.05176e-05ZM46.6556 33.577C48.0679 34.9564 49.5619 36.2546 50.8297 37.7766C51.3914 38.4498 51.9208 39.146 52.3238 39.929C52.8991 41.0455 52.3796 42.2699 51.3802 42.3363L45.1727 42.335C43.5695 42.4677 42.2937 41.8211 41.218 40.725C40.3594 39.8515 39.5628 38.9185 38.7358 38.0152C38.3979 37.6445 38.042 37.2955 37.618 37.0208C36.7718 36.4703 36.0365 36.6389 35.5517 37.523C35.0576 38.4225 34.9448 39.4194 34.8977 40.4206C34.8301 41.8843 34.3887 42.2668 32.92 42.3357C29.7818 42.4826 26.8042 42.0065 24.0368 40.4244C21.5954 39.0288 19.7058 37.0593 18.0592 34.8293C14.8529 30.4822 12.3972 25.7111 10.1908 20.803C9.69426 19.6976 10.0576 19.1062 11.277 19.0832C13.303 19.0442 15.329 19.0491 17.355 19.0814C18.1795 19.0944 18.7251 19.5662 19.0418 20.3442C20.1367 23.0379 21.4789 25.6008 23.1608 27.9776C23.609 28.6106 24.0665 29.2417 24.7181 29.6887C25.4372 30.1822 25.9853 30.0191 26.3244 29.2163C26.5414 28.7061 26.635 28.1605 26.6821 27.6137C26.8433 25.7409 26.8625 23.8686 26.5835 22.0032C26.4099 20.8358 25.7534 20.082 24.5898 19.8613C23.9971 19.7491 24.0839 19.5296 24.3722 19.1911C24.8725 18.6059 25.3411 18.2438 26.2779 18.2438L33.2914 18.2426C34.3967 18.4596 34.6447 18.9555 34.7947 20.069L34.8009 27.8629C34.7879 28.2938 35.0173 29.5709 35.791 29.853C36.411 30.0576 36.8201 29.5604 37.1908 29.1679C38.8728 27.3831 40.0711 25.2765 41.1443 23.0962C41.6179 22.1346 42.0264 21.1396 42.4232 20.1427C42.7183 19.4056 43.1771 19.0429 44.009 19.0553L50.7628 19.0634C50.9618 19.0634 51.1639 19.0653 51.361 19.0994C52.4992 19.294 52.8111 19.7838 52.459 20.8941C51.9047 22.6386 50.8279 24.0918 49.7752 25.5487C48.6469 27.1085 47.4436 28.6137 46.3264 30.1803C45.2998 31.6124 45.381 32.3334 46.6556 33.577Z" fill="#ac8c4c"/>
</svg>
