<?xml version="1.0" encoding="UTF-8" standalone="no"?>
<!DOCTYPE svg PUBLIC "-//W3C//DTD SVG 1.1//EN" "http://www.w3.org/Graphics/SVG/1.1/DTD/svg11.dtd">
<svg width="100%" height="100%" viewBox="0 0 100 100" version="1.1" xmlns="http://www.w3.org/2000/svg" xmlns:xlink="http://www.w3.org/1999/xlink" xml:space="preserve" xmlns:serif="http://www.serif.com/" style="fill-rule:evenodd;clip-rule:evenodd;stroke-linejoin:round;stroke-miterlimit:2;">
    <path d="M7.482,7.029C0.663,13.849 0.459,24.7 0.453,45.999C19.541,45.999 31.459,37.805 41.913,30.616C50.079,25.001 57.352,19.999 66.453,19.999C79.999,19.999 91.826,29.577 98.097,34.655C98.981,35.371 99.755,35.998 100.408,36.496C100.21,21.309 99.145,12.751 93.424,7.029C86.394,-0 75.081,-0 52.453,-0L48.453,-0C25.826,0 14.512,0 7.482,7.029ZM45.513,99.999C46.471,100 47.451,100 48.453,100L52.453,100C53.455,100 54.435,100 55.393,99.999L45.513,99.999Z" style="fill:rgb(172,140,76);"/>
    <path d="M0.453,45.999C19.541,45.999 31.459,37.805 41.913,30.616C50.079,25.001 57.353,19.999 66.453,19.999C79.999,19.999 91.826,29.577 98.097,34.655C98.981,35.371 99.755,35.998 100.408,36.496C100.453,39.969 100.453,43.788 100.453,48L100.453,52C100.453,74.627 100.453,85.941 93.424,92.971C86.705,99.689 76.074,99.986 55.392,99.999L45.514,99.999C24.832,99.986 14.201,99.689 7.483,92.971C0.453,85.941 0.453,74.627 0.453,52L0.453,48C0.453,47.323 0.453,46.656 0.453,45.999Z" style="fill:rgb(192,165,112);"/>
    <path d="M77.954,50.975C77.954,48.504 79.982,46.5 82.454,46.5C84.925,46.5 86.954,48.504 86.954,50.975L86.954,69.025C86.954,71.497 84.925,73.5 82.454,73.5C79.982,73.5 77.954,71.497 77.954,69.025L77.954,50.975Z" style="fill:white;fill-rule:nonzero;"/>
    <path d="M61.954,39.475C61.954,37.004 63.983,35 66.454,35C68.926,35 70.954,37.004 70.954,39.475L70.954,80.525C70.954,82.997 68.926,85 66.454,85C63.983,85 61.954,82.997 61.954,80.525L61.954,39.475Z" style="fill:white;fill-rule:nonzero;"/>
    <path d="M45.954,50.975C45.954,48.504 47.983,46.5 50.454,46.5C52.926,46.5 54.954,48.504 54.954,50.975L54.954,69.025C54.954,71.497 52.926,73.5 50.454,73.5C47.983,73.5 45.954,71.497 45.954,69.025L45.954,50.975Z" style="fill:white;fill-rule:nonzero;"/>
    <path d="M29.952,57.475C29.952,55.003 31.981,53 34.452,53C36.924,53 38.952,55.003 38.952,57.475L38.952,62.525C38.952,64.996 36.924,67 34.452,67C31.981,67 29.952,64.996 29.952,62.525L29.952,57.475Z" style="fill:white;fill-rule:nonzero;"/>
    <path d="M13.952,57.475C13.952,55.003 15.981,53 18.452,53C20.924,53 22.952,55.003 22.952,57.475L22.952,62.525C22.952,64.996 20.924,67 18.452,67C15.981,67 13.952,64.996 13.952,62.525L13.952,57.475Z" style="fill:white;fill-rule:nonzero;"/>
</svg>
