<?xml version="1.0" encoding="UTF-8" standalone="no"?>
<!DOCTYPE svg PUBLIC "-//W3C//DTD SVG 1.1//EN" "http://www.w3.org/Graphics/SVG/1.1/DTD/svg11.dtd">
<svg width="100%" height="100%" viewBox="0 0 511 100" version="1.1" xmlns="http://www.w3.org/2000/svg" xmlns:xlink="http://www.w3.org/1999/xlink" xml:space="preserve" xmlns:serif="http://www.serif.com/" style="fill-rule:evenodd;clip-rule:evenodd;stroke-linejoin:round;stroke-miterlimit:2;">
    <path d="M163.596,75L181.953,24.643L172.881,24.643L158.167,66.143L156.739,66.143L142.524,24.643L133.31,24.643L151.096,75L163.596,75Z" style="fill:white;fill-rule:nonzero;"/>
    <path d="M205.751,48.929L227.108,24.643L216.537,24.643L198.679,45.143L196.608,45.143L196.608,24.643L188.037,24.643L188.037,75L196.608,75L196.608,53.429L198.751,53.429L217.608,75L228.894,75L205.751,48.929Z" style="fill:white;fill-rule:nonzero;"/>
    <path d="M257.638,75L257.638,36.071L258.781,36.071L272.852,75L280.852,75L295.21,36.071L296.352,36.071L296.352,75L304.71,75L304.71,24.643L291.567,24.643L277.567,62.714L276.424,62.714L262.71,24.643L249.281,24.643L249.281,75L257.638,75Z" style="fill:white;fill-rule:nonzero;"/>
    <path d="M331.623,64.643L330.48,64.643L319.551,37.857L310.765,37.857L327.265,77L326.837,78.143C325.765,81.143 324.48,82.143 321.765,82.143L314.837,82.143L315.551,89.643L321.194,89.643C328.051,89.643 331.765,86.571 334.265,79.643L349.48,37.857L341.123,37.857L331.623,64.643Z" style="fill:white;fill-rule:nonzero;"/>
    <path d="M375.318,56.071C379.104,55.071 381.889,52 381.889,47.786C381.889,41.571 375.961,37.143 367.746,37.143C360.389,37.143 354.175,40.571 351.889,47.643L359.461,48.929C360.961,46 363.889,44.143 367.461,44.143C370.889,44.143 373.675,45.857 373.675,48.643C373.675,51.143 371.389,52.786 366.961,52.786L362.318,52.786L362.318,59.929L366.961,59.929C372.532,59.929 374.246,61.786 374.246,64.143C374.246,67 371.675,68.714 366.961,68.714C362.675,68.714 360.175,67.286 358.532,64L350.961,65.286C352.746,71.5 358.818,75.714 367.032,75.714C376.461,75.714 382.461,70.857 382.461,64.786C382.461,60.143 379.104,57.214 375.318,56.071Z" style="fill:white;fill-rule:nonzero;"/>
    <path d="M404.308,75C413.165,75 419.451,69.5 419.451,61.714C419.451,53.929 413.236,48.429 404.308,48.429L398.522,48.429L398.522,37.857L390.308,37.857L390.308,75L404.308,75ZM432.094,75L432.094,37.857L423.879,37.857L423.879,75L432.094,75ZM398.522,55.571L404.308,55.571C408.379,55.571 411.236,58.071 411.236,61.714C411.236,65.357 408.379,67.857 404.308,67.857L398.522,67.857L398.522,55.571Z" style="fill:white;fill-rule:nonzero;"/>
    <path d="M475.225,75L458.154,55.714L473.797,37.857L464.011,37.857L451.582,52.286L449.582,52.286L449.582,37.857L441.368,37.857L441.368,75L449.582,75L449.582,60.214L451.582,60.214L464.44,75L475.225,75Z" style="fill:white;fill-rule:nonzero;"/>
    <path d="M493.62,37.143C486.406,37.143 480.049,40.857 478.192,47.286L485.763,48.571C486.906,46.286 489.477,44.143 493.192,44.143C497.692,44.143 500.335,47.357 500.692,52.214L492.692,52.214C481.763,52.214 476.335,57 476.335,63.857C476.335,70.786 481.692,75.714 489.263,75.714C495.335,75.714 499.406,72.214 501.192,69.143L502.906,75L508.978,75L508.978,54.143C508.978,43.357 503.12,37.143 493.62,37.143ZM491.192,68.786C487.192,68.786 484.62,66.714 484.62,63.5C484.62,60.643 486.692,58.643 492.978,58.643L500.763,58.643C500.763,64.714 496.906,68.786 491.192,68.786Z" style="fill:white;fill-rule:nonzero;"/>
    <path d="M7.482,7.029C0.663,13.849 0.459,24.7 0.453,45.999C19.541,45.999 31.459,37.805 41.913,30.616C50.079,25.001 57.352,19.999 66.453,19.999C79.999,19.999 91.826,29.577 98.097,34.655C98.981,35.371 99.755,35.998 100.408,36.496C100.21,21.309 99.145,12.751 93.424,7.029C86.394,-0 75.081,-0 52.453,-0L48.453,-0C25.826,0 14.512,0 7.482,7.029ZM45.513,99.999C46.471,100 47.451,100 48.453,100L52.453,100C53.455,100 54.435,100 55.393,99.999L45.513,99.999Z" style="fill:white;"/>
    <path d="M0.453,45.999C19.541,45.999 31.459,37.805 41.913,30.616C50.079,25.001 57.353,19.999 66.453,19.999C79.999,19.999 91.826,29.577 98.097,34.655C98.981,35.371 99.755,35.998 100.408,36.496C100.453,39.969 100.453,43.788 100.453,48L100.453,52C100.453,74.627 100.453,85.941 93.424,92.971C86.705,99.689 76.074,99.986 55.392,99.999L45.514,99.999C24.832,99.986 14.201,99.689 7.483,92.971C0.453,85.941 0.453,74.627 0.453,52L0.453,45.999Z" style="fill:white;fill-opacity:0.79;"/>
    <path d="M77.954,50.975C77.954,48.504 79.982,46.5 82.454,46.5C84.925,46.5 86.954,48.504 86.954,50.975L86.954,69.025C86.954,71.497 84.925,73.5 82.454,73.5C79.982,73.5 77.954,71.497 77.954,69.025L77.954,50.975Z" style="fill:white;fill-rule:nonzero;"/>
    <path d="M61.954,39.475C61.954,37.004 63.983,35 66.454,35C68.926,35 70.954,37.004 70.954,39.475L70.954,80.525C70.954,82.997 68.926,85 66.454,85C63.983,85 61.954,82.997 61.954,80.525L61.954,39.475Z" style="fill:white;fill-rule:nonzero;"/>
    <path d="M45.954,50.975C45.954,48.504 47.983,46.5 50.454,46.5C52.926,46.5 54.954,48.504 54.954,50.975L54.954,69.025C54.954,71.497 52.926,73.5 50.454,73.5C47.983,73.5 45.954,71.497 45.954,69.025L45.954,50.975Z" style="fill:white;fill-rule:nonzero;"/>
    <path d="M29.952,57.475C29.952,55.003 31.981,53 34.452,53C36.924,53 38.952,55.003 38.952,57.475L38.952,62.525C38.952,64.996 36.924,67 34.452,67C31.981,67 29.952,64.996 29.952,62.525L29.952,57.475Z" style="fill:white;fill-rule:nonzero;"/>
    <path d="M13.952,57.475C13.952,55.003 15.981,53 18.452,53C20.924,53 22.952,55.003 22.952,57.475L22.952,62.525C22.952,64.996 20.924,67 18.452,67C15.981,67 13.952,64.996 13.952,62.525L13.952,57.475Z" style="fill:white;fill-rule:nonzero;"/>
</svg>
