<svg width="244" height="64" fill="none" xmlns="http://www.w3.org/2000/svg"><path d="M228 0H16C7 0 0 7 0 16v32c0 9 7 16 16 16h212c9 0 16-7 16-16V16c0-9-7-16-16-16Z" fill="#000"/><path fill-rule="evenodd" clip-rule="evenodd" d="M91 32c0 6-5 10-11 10s-11-4-11-10 5-10 11-10 11 4 11 10Zm-17 0c0 4 2 6 6 6 3 0 6-2 6-6s-3-6-6-6c-4 0-6 2-6 6Zm-31 0c2-1 3-3 3-5 0-3-3-5-7-5H29v20h10c4 0 7-2 7-6 0-2-1-4-3-4Zm-10-6h6l2 2-2 2h-6v-4Zm6 12h-6v-5h6c2 0 3 1 3 3 0 1-1 2-3 2Zm24 4h6l-9-10 8-10h-5l-7 8h-1v-8h-4v20h4v-8h1l7 8Zm45-20v8h-9v-8h-5v20h5v-8h9v8h4V22h-4Zm19 20h-5V26h-7v-4h19v4h-7v16Zm17-20c-4 0-7 2-8 5l4 1a4 4 0 0 1 4-3c3 0 4 2 4 5h-4c-6 0-9 2-9 6s3 6 7 6c3 0 5-1 6-3l1 3h4V31c0-6-4-9-9-9Zm-1 17c-2 0-4-1-4-3s2-3 5-3h4c0 3-2 6-5 6Zm33 3h-6l-7-8h-1v8h-5V22h5v8h1l6-8h6l-9 10 10 10Zm7 0h5V26h7v-4h-19v4h7v16Zm23-20c6 0 10 4 10 10v1h-16c0 3 3 5 6 5l5-2 4 1c-1 3-5 5-9 5-6 0-11-4-11-10s5-10 11-10Zm5 8a6 6 0 0 0-5-4 5 5 0 0 0-6 4h11Z" fill="#fff"/></svg>