<?xml version="1.0" encoding="UTF-8" standalone="no"?>
<!DOCTYPE svg PUBLIC "-//W3C//DTD SVG 1.1//EN" "http://www.w3.org/Graphics/SVG/1.1/DTD/svg11.dtd">
<svg width="100%" height="100%" viewBox="0 0 189 38" version="1.1" xmlns="http://www.w3.org/2000/svg" xmlns:xlink="http://www.w3.org/1999/xlink" xml:space="preserve" xmlns:serif="http://www.serif.com/" style="fill-rule:evenodd;clip-rule:evenodd;stroke-linejoin:round;stroke-miterlimit:2;">
    <g transform="matrix(1,0,0,1,-28,-13)">
        <path d="M91,32C91,38 86,42 80,42C74,42 69,38 69,32C69,26 74,22 80,22C86,22 91,26 91,32ZM74,32C74,36 76,38 80,38C83,38 86,36 86,32C86,28 83,26 80,26C76,26 74,28 74,32ZM43,32C45,31 46,29 46,27C46,24 43,22 39,22L29,22L29,42L39,42C43,42 46,40 46,36C46,34 45,32 43,32ZM33,26L39,26L41,28L39,30L33,30L33,26ZM39,38L33,38L33,33L39,33C41,33 42,34 42,36C42,37 41,38 39,38ZM63,42L69,42L60,32L68,22L63,22L56,30L55,30L55,22L51,22L51,42L55,42L55,34L56,34L63,42ZM108,22L108,30L99,30L99,22L94,22L94,42L99,42L99,34L108,34L108,42L112,42L112,22L108,22ZM127,42L122,42L122,26L115,26L115,22L134,22L134,26L127,26L127,42ZM144,22C140,22 137,24 136,27L140,28C140.465,26.194 142.136,24.941 144,25C147,25 148,27 148,30L144,30C138,30 135,32 135,36C135,40 138,42 142,42C145,42 147,41 148,39L149,42L153,42L153,31C153,25 149,22 144,22ZM143,39C141,39 139,38 139,36C139,34 141,33 144,33L148,33C148,36 146,39 143,39ZM176,42L170,42L163,34L162,34L162,42L157,42L157,22L162,22L162,30L163,30L169,22L175,22L166,32L176,42ZM183,42L188,42L188,26L195,26L195,22L176,22L176,26L183,26L183,42ZM206,22C212,22 216,26 216,32L216,33L200,33C200,36 203,38 206,38L211,36L215,37C214,40 210,42 206,42C200,42 195,38 195,32C195,26 200,22 206,22ZM211,30C210.245,27.818 208.294,26.258 206,26C205.646,25.922 205.284,25.882 204.922,25.882C202.51,25.882 200.425,27.627 200,30L211,30Z" style="fill:rgb(206,188,153);"/>
    </g>
</svg>
