<svg width="77" height="77" xmlns="http://www.w3.org/2000/svg"><path fill-rule="evenodd" clip-rule="evenodd" d="M38.5 77C59.763 77 77 59.763 77 38.5S59.763 0 38.5 0 0 17.237 0 38.5 17.237 77 38.5 77Zm-5.62-44.62C37.211 28.047 38 21.553 38.144 10h1.708c.144 11.553.933 18.047 5.266 22.38 4.333 4.334 10.826 5.122 22.381 5.266v1.708c-11.555.144-18.048.932-22.381 5.266-4.333 4.333-5.122 10.827-5.266 22.38h-1.708c-.144-11.553-.933-18.047-5.266-22.38-4.333-4.334-10.826-5.122-22.379-5.266v-1.708c11.553-.144 18.046-.932 22.38-5.266Z" fill="#AC8C4C"/></svg>
