<?xml version="1.0" encoding="UTF-8" standalone="no"?>
<!DOCTYPE svg PUBLIC "-//W3C//DTD SVG 1.1//EN" "http://www.w3.org/Graphics/SVG/1.1/DTD/svg11.dtd">
<svg width="100%" height="100%" viewBox="0 0 172 172" version="1.1" xmlns="http://www.w3.org/2000/svg" xmlns:xlink="http://www.w3.org/1999/xlink" xml:space="preserve" xmlns:serif="http://www.serif.com/" style="fill-rule:evenodd;clip-rule:evenodd;stroke-linejoin:round;stroke-miterlimit:2;">
    <path d="M169.881,65.679L169.214,62.363L141.015,57.437L157.401,35.268L155.496,33.184L131.394,44.742L134.442,14.047L131.965,12.627L117.294,37.447L100.814,0.5L97.956,0.5L101.862,36.216L60.422,3.058L56.897,4.1L88.81,44.174L25.65,23.142L22.792,26.363L79.189,58.48L1.357,64.92L0.5,69.753L81.38,78.563L13.932,134.363L16.79,138.247L97.098,94.574L81.19,171.5L86.049,171.5L116.819,99.121L135.586,155.774L138.921,153.216L131.204,95.616L160.45,128.774L162.356,125.742L139.968,84.626L171.215,96.184L171.501,92.679L143.493,72.026L169.882,65.679L169.881,65.679Z" style="fill:rgb(172,140,76);fill-rule:nonzero;"/>
</svg>
