<?xml version="1.0" encoding="UTF-8" standalone="no"?>
<!DOCTYPE svg PUBLIC "-//W3C//DTD SVG 1.1//EN" "http://www.w3.org/Graphics/SVG/1.1/DTD/svg11.dtd">
<svg width="100%" height="100%" viewBox="0 0 184 22" version="1.1" xmlns="http://www.w3.org/2000/svg" xmlns:xlink="http://www.w3.org/1999/xlink" xml:space="preserve" xmlns:serif="http://www.serif.com/" style="fill-rule:evenodd;clip-rule:evenodd;stroke-linejoin:round;stroke-miterlimit:2;">
    <g>
        <path d="M0.323,8.537C0.323,10.636 1.333,11.898 3.13,13.187L0,17.843L2.584,17.843L6.075,12.636L4.864,11.809C3.39,10.82 2.684,10.032 2.684,8.398C2.684,6.925 3.714,5.916 5.691,5.916L6.741,5.916L6.741,17.845L9.143,17.845L9.143,4.077L5.671,4.077C2.159,4.077 0.322,5.874 0.322,8.537L0.323,8.537Z" style="fill:rgb(206,188,153);fill-rule:nonzero;"/>
        <path d="M16.631,11.807L13.483,11.807L13.483,7.872L11.121,7.872L11.121,17.843L13.483,17.843L13.483,13.664L16.631,13.664L16.631,17.843L19.013,17.843L19.013,7.872L16.631,7.872L16.631,11.807Z" style="fill:rgb(206,188,153);fill-rule:nonzero;"/>
        <path d="M47.935,7.872L45.555,7.872L42.245,12.474L42.245,7.872L39.883,7.872L39.883,17.843L42.245,17.843L42.245,12.938L45.715,17.843L48.4,17.843L44.626,12.474L47.935,7.872Z" style="fill:rgb(206,188,153);fill-rule:nonzero;"/>
        <path d="M53.083,9.567C53.991,9.567 54.88,9.891 55.363,10.173L55.363,8.194C54.858,7.911 53.991,7.709 52.84,7.709C49.813,7.709 48.258,9.849 48.258,12.856C48.258,16.126 49.771,17.943 52.94,17.943C54.01,17.943 54.777,17.761 55.362,17.338L55.362,15.401C54.757,15.824 54.05,16.087 53.062,16.087C51.386,16.087 50.68,14.816 50.68,12.797C50.68,10.657 51.548,9.569 53.082,9.569L53.083,9.567Z" style="fill:rgb(206,188,153);fill-rule:nonzero;"/>
        <path d="M28.56,7.872L21.696,7.872L21.696,8.72C21.696,11.162 21.535,14.291 20.708,15.966L19.961,15.966L19.961,20.023L22.161,20.023L22.161,17.843L27.45,17.843L27.45,20.023L29.61,20.023L29.61,15.966L28.56,15.966L28.56,7.872ZM26.197,15.966L22.887,15.966C23.532,14.452 23.713,11.747 23.713,10.012L23.713,9.729L26.196,9.729L26.196,15.966L26.197,15.966Z" style="fill:rgb(206,188,153);fill-rule:nonzero;"/>
        <path d="M34.414,7.71C31.569,7.71 30.195,9.891 30.195,12.878C30.195,16.288 31.891,17.943 34.898,17.943C36.411,17.943 37.521,17.62 38.208,17.156L38.208,15.239C37.481,15.704 36.249,16.087 35.099,16.087C33.368,16.087 32.707,15.298 32.626,13.686L38.288,13.686L38.288,12.454C38.288,9.002 36.774,7.71 34.413,7.71L34.414,7.71ZM34.374,9.567C35.564,9.567 35.907,10.516 35.907,11.747L35.907,11.949L32.624,11.949C32.68,10.385 33.245,9.567 34.374,9.567Z" style="fill:rgb(206,188,153);fill-rule:nonzero;"/>
        <path d="M81.19,8.386L81.104,7.959L77.476,7.325L79.585,4.473L79.339,4.205L76.239,5.692L76.631,1.743L76.312,1.56L74.425,4.753L72.304,0L71.937,0L72.439,4.595L67.108,0.329L66.654,0.463L70.76,5.619L62.634,2.913L62.266,3.327L69.522,7.459L59.509,8.288L59.398,8.91L69.804,10.043L61.127,17.222L61.494,17.722L71.826,12.103L69.78,22L70.405,22L74.363,12.688L76.778,19.977L77.207,19.648L76.214,12.237L79.977,16.503L80.222,16.113L77.342,10.823L81.362,12.31L81.398,11.859L77.795,9.202L81.19,8.386Z" style="fill:rgb(206,188,153);fill-rule:nonzero;"/>
        <path d="M129.93,12.708C131.778,12.336 132.666,11.428 132.666,10.476C132.666,8.477 129.881,7.509 126.207,7.509C123.684,7.509 121.787,7.993 120.475,8.659L120.475,10.819C121.625,10.214 123.522,9.628 125.501,9.628C126.914,9.628 127.741,9.932 127.741,10.698C127.741,11.465 127.034,11.769 125.359,11.769L123.059,11.769L123.059,13.909L125.339,13.909C127.499,13.909 128.044,14.212 128.044,14.978C128.044,15.625 127.217,16.109 125.279,16.109C122.635,16.109 121.1,15.302 120.172,14.857L120.172,17.077C120.979,17.562 122.857,18.147 125.824,18.147C130.466,18.147 133.029,16.936 133.029,14.958C133.029,13.693 131.914,12.993 129.93,12.711L129.93,12.708Z" style="fill:rgb(206,188,153);fill-rule:nonzero;"/>
        <path d="M117.367,7.872L113.969,14.169L110.283,7.872L104.793,7.872L111.328,18.705L109.355,21.838L112.16,21.838L114.925,17.278L120.173,7.872L117.367,7.872Z" style="fill:rgb(206,188,153);fill-rule:nonzero;"/>
        <path d="M94.567,11.899L91.128,4.077L85.336,4.077L85.336,17.843L87.536,17.843L87.536,7.718L92.057,17.843L94.56,17.843L99.02,7.715L99.02,17.843L103.946,17.843L103.946,4.077L97.91,4.077L94.567,11.899Z" style="fill:rgb(206,188,153);fill-rule:nonzero;"/>
        <path d="M168.654,7.872L164.96,7.872L159.632,11.828L159.632,7.872L154.727,7.872L154.727,17.843L159.632,17.843L159.632,13.684L163.124,17.843L169.441,17.843L163.733,11.455L168.654,7.872Z" style="fill:rgb(206,188,153);fill-rule:nonzero;"/>
        <path d="M141.346,10.596L139.328,10.596L139.328,7.871L134.402,7.871L134.402,17.842L141.325,17.842C145.018,17.842 147.299,16.55 147.299,14.148C147.299,11.988 145.28,10.596 141.345,10.596L141.346,10.596ZM140.659,15.763L139.328,15.763L139.328,12.675L140.659,12.675C141.729,12.675 142.355,13.18 142.355,14.208C142.355,15.398 141.81,15.762 140.659,15.762L140.659,15.763Z" style="fill:rgb(206,188,153);fill-rule:nonzero;"/>
        <path d="M179.209,7.892L179.1,9.145C178.1,8.219 176.612,7.73 174.709,7.73C171.358,7.73 168.613,9.547 168.613,12.918C168.613,16.288 171.217,18.125 174.689,18.125C176.556,18.125 178.082,17.627 179.11,16.664L179.209,17.842L183.933,17.842L183.933,7.892L179.209,7.892ZM176.343,15.905C174.667,15.905 173.637,15.061 173.637,12.898C173.637,10.601 174.707,9.951 176.343,9.951C177.836,9.951 179.028,10.58 179.028,12.898C179.028,15.215 178.019,15.905 176.343,15.905Z" style="fill:rgb(206,188,153);fill-rule:nonzero;"/>
        <rect x="147.863" y="7.872" width="4.905" height="9.971" style="fill:rgb(206,188,153);"/>
    </g>
</svg>
