<svg width="244" height="64" viewBox="0 0 244 64" fill="none" xmlns="http://www.w3.org/2000/svg">
<rect width="244" height="64" rx="16" fill="black"/>
<g clip-path="url(#clip0)">
<path fill-rule="evenodd" clip-rule="evenodd" d="M135.814 16C135.736 22.2267 135.311 25.7265 132.976 28.0619C130.641 30.3973 127.142 30.8223 120.916 30.8997V31.8203C127.142 31.8977 130.641 32.3227 132.976 34.6581C135.311 36.9935 135.736 40.4933 135.814 46.72H136.734C136.812 40.4933 137.237 36.9935 139.572 34.6581C141.907 32.3227 145.406 31.8976 151.633 31.8203V30.8997C145.406 30.8223 141.907 30.3973 139.572 28.0619C137.237 25.7265 136.812 22.2267 136.734 16H135.814Z" fill="white"/>
<path d="M31.3474 42.8806H35.3738V19.751H29.5171C23.6272 19.751 20.5324 22.7795 20.5324 27.239C20.5324 30.7999 22.2295 32.8966 25.2577 35.0598L20 42.8806H24.3593L30.216 34.1279L28.1861 32.7635C25.7236 31.0995 24.5256 29.8015 24.5256 27.006C24.5256 24.5433 26.256 22.8793 29.5504 22.8793H31.3474V42.8806ZM108.982 43.2134C110.812 43.2134 112.11 42.8806 113.075 42.1817V38.9535C112.077 39.6524 110.879 40.0851 109.215 40.0851C106.386 40.0851 105.222 37.8886 105.222 34.4275C105.222 30.7999 106.653 28.9363 109.248 28.9363C110.779 28.9363 112.276 29.4687 113.075 29.9679V26.6067C112.243 26.1407 110.779 25.8079 108.816 25.8079C103.758 25.8079 101.129 29.4355 101.129 34.5273C101.129 40.1183 103.691 43.2134 108.982 43.2134ZM84.2241 41.7491V38.5209C82.9928 39.3529 80.9297 40.0851 78.9996 40.0851C76.1046 40.0851 75.0064 38.7206 74.84 35.9251H84.3905V33.8284C84.3905 28.0044 81.8282 25.8079 77.8682 25.8079C73.0431 25.8079 70.747 29.502 70.747 34.5606C70.747 40.3846 73.6088 43.2134 78.6669 43.2134C81.1959 43.2134 83.0594 42.5478 84.2241 41.7491ZM47.9525 26.1407V32.7635H42.6615V26.1407H38.7015V42.8806H42.6615V35.8918H47.9525V42.8806H51.9124V26.1407H47.9525ZM69.782 39.7523H68.0183V26.1407H56.4713V27.5718C56.4713 31.6652 56.2051 36.9567 54.8075 39.7523H53.5762V46.7078H57.2367V42.8806H66.1216V46.7078H69.782V39.7523ZM96.8692 42.8806H101.362L95.0057 33.8617L100.596 26.1407H96.603L91.0125 33.8617V26.1407H87.0526V42.8806H91.0125V34.6604L96.8692 42.8806ZM77.8017 28.9363C79.765 28.9363 80.364 30.567 80.364 32.6636V32.9964H74.84C74.9399 30.334 75.9049 28.9363 77.8017 28.9363ZM64.0584 39.7523H58.4679C59.566 37.223 59.8655 32.6636 59.8655 29.7683V29.2691H64.0584V39.7523Z" fill="white"/>
<path d="M162.214 47.7052V42.8796H174.593V47.7052H178.354V39.7513H176.191V19.75H162.048L161.649 31.2316C161.516 34.959 161.116 37.9874 160.051 39.7513H158.454V47.7052H162.214ZM165.176 31.7641L165.475 22.8783H172.164V39.7513H163.845C164.544 38.1871 165.043 35.4914 165.176 31.7641Z" fill="white"/>
<path d="M185.11 40.0841C183.08 40.0841 181.084 39.3519 180.019 38.5532V41.7814C180.784 42.4137 182.714 43.2124 185.576 43.2124C189.802 43.2124 192.032 41.3154 192.032 37.9542C192.032 35.9906 190.801 34.6594 188.604 34.1935C190.668 33.5279 191.533 32.0636 191.533 30.1999C191.533 27.3711 189.303 25.807 185.709 25.807C183.114 25.807 181.417 26.6057 180.452 27.2047V30.4329C181.516 29.734 182.981 28.9353 185.144 28.9353C186.608 28.9353 187.54 29.6342 187.54 30.8655C187.54 32.1634 186.741 32.8623 185.11 32.8623H182.615V35.8575H185.11C187.14 35.8575 187.939 36.4566 187.939 37.9209C187.939 39.2521 186.974 40.0841 185.11 40.0841Z" fill="white"/>
<path d="M207.015 41.7481V38.5199C205.783 39.3519 203.72 40.0841 201.79 40.0841C198.895 40.0841 197.797 38.7196 197.631 35.9241H207.181V33.8274C207.181 28.0034 204.619 25.807 200.659 25.807C195.834 25.807 193.538 29.501 193.538 34.5596C193.538 40.3836 196.399 43.2124 201.458 43.2124C203.987 43.2124 205.85 42.5468 207.015 41.7481ZM200.592 28.9353C202.556 28.9353 203.155 30.566 203.155 32.6626V32.9954H197.631C197.731 30.333 198.696 28.9353 200.592 28.9353Z" fill="white"/>
<path d="M219.085 26.1398V32.7625H213.794V26.1398H209.834V42.8796H213.794V35.8908H219.085V42.8796H223.045V26.1398H219.085Z" fill="white"/>
</g>
<defs>
<clipPath id="clip0">
<rect width="203.5" height="32" fill="white" transform="translate(20 16)"/>
</clipPath>
</defs>
</svg>
