<svg width="64" height="61" viewBox="0 0 64 61" fill="#ac8c4c" xmlns="http://www.w3.org/2000/svg">
<g clip-path="url(#clip0)">
<path d="M27.7046 35.9766L37.9988 30.2999L27.7046 24.6233V35.9766Z" fill="#ac8c4c"/>
<path d="M31.6467 0C14.1714 0 0 13.5683 0 30.3C0 47.0317 14.1714 60.6 31.6467 60.6C49.122 60.6 63.2933 47.0317 63.2933 30.3C63.2933 13.5683 49.122 0 31.6467 0ZM51.421 30.331C51.421 30.331 51.421 36.476 50.6069 39.4391C50.1505 41.061 48.8148 42.3398 47.1209 42.7763C44.026 43.5562 31.6467 43.5562 31.6467 43.5562C31.6467 43.5562 19.2997 43.5562 16.1725 42.7453C14.4785 42.3089 13.1428 41.0296 12.6865 39.4077C11.8718 36.476 11.8718 30.3 11.8718 30.3C11.8718 30.3 11.8718 24.1555 12.6865 21.1923C13.1423 19.5704 14.5108 18.2602 16.1725 17.8237C19.2673 17.0437 31.6467 17.0437 31.6467 17.0437C31.6467 17.0437 44.026 17.0437 47.1209 17.8547C48.8148 18.2911 50.1505 19.5704 50.6069 21.1923C51.4538 24.1555 51.421 30.331 51.421 30.331Z" fill="#ac8c4c"/>
</g>
<defs>
<clipPath id="clip0">
<rect width="63.2933" height="60.6" fill="white"/>
</clipPath>
</defs>
</svg>
